<?xml version="1.0" standalone="no"?>
<!DOCTYPE svg PUBLIC "-//W3C//DTD SVG 20010904//EN"
 "http://www.w3.org/TR/2001/REC-SVG-20010904/DTD/svg10.dtd">
<svg version="1.0" xmlns="http://www.w3.org/2000/svg"
 width="700.000000pt" height="700.000000pt" viewBox="0 0 700.000000 700.000000"
 preserveAspectRatio="xMidYMid meet">
<metadata>
Created by potrace 1.11, written by Peter Selinger 2001-2013
</metadata>
<g transform="translate(0.000000,700.000000) scale(0.100000,-0.100000)"
fill="#000000" stroke="none">
<path d="M4680 6723 c-102 -17 -231 -58 -315 -100 -38 -20 -72 -39 -75 -43 -3
-4 -20 -15 -38 -24 -89 -46 -238 -238 -299 -386 -84 -206 -92 -294 -89 -945 1
-297 6 -551 9 -565 4 -14 9 -42 12 -62 3 -21 14 -70 26 -110 11 -40 22 -77 23
-83 28 -98 124 -252 211 -338 131 -129 323 -225 505 -253 25 -3 54 -8 65 -11
11 -2 79 -6 151 -8 125 -2 262 11 323 33 14 5 44 15 66 22 115 36 242 116 341
215 62 62 164 191 164 209 0 4 11 24 25 45 26 42 64 131 96 226 18 51 58 215
59 238 0 4 -125 7 -279 7 l-278 0 -27 -82 c-78 -243 -238 -373 -451 -370 -153
3 -257 42 -340 127 -71 72 -106 150 -132 290 -8 39 -8 981 -1 1020 28 146 67
229 144 302 31 29 65 55 77 59 12 4 24 10 27 14 3 4 40 16 83 27 238 60 442
-34 550 -252 28 -56 57 -138 57 -160 0 -8 3 -16 8 -16 4 -1 132 -3 285 -4 193
-1 277 2 277 9 0 6 -5 31 -11 56 -6 25 -12 53 -14 63 -13 63 -63 205 -100 281
-150 314 -376 498 -695 566 -101 21 -323 23 -440 3z"/>
<path d="M2057 6433 c-58 -153 -158 -415 -222 -583 -64 -168 -127 -332 -140
-365 -13 -33 -59 -154 -103 -270 -44 -115 -122 -318 -172 -450 -50 -132 -105
-276 -122 -320 -16 -44 -34 -89 -39 -100 -4 -11 -31 -81 -59 -155 -28 -74 -55
-144 -60 -155 -26 -61 -79 -209 -76 -213 3 -2 114 -4 248 -4 372 1 332 -3 345
35 7 17 42 120 79 227 37 107 68 197 70 198 4 5 1054 6 1058 1 2 -2 39 -103
81 -224 43 -121 81 -224 85 -229 8 -8 567 -13 575 -4 3 3 -6 34 -19 69 -41
113 -117 313 -126 334 -5 11 -20 50 -34 87 -14 38 -37 96 -50 130 -14 35 -84
218 -156 408 -72 190 -135 354 -140 365 -5 11 -59 153 -120 315 -62 162 -129
340 -150 395 -21 55 -84 219 -140 365 -121 318 -123 324 -145 378 l-18 42
-172 0 -171 0 -107 -277z m339 -809 c30 -87 85 -242 120 -344 36 -102 87 -248
114 -324 27 -77 48 -142 45 -144 -2 -2 -156 -4 -342 -4 -274 1 -337 3 -335 14
3 13 82 242 132 383 16 44 68 193 117 332 48 138 89 250 90 249 1 -1 28 -74
59 -162z"/>
<path d="M949 3138 c-1 -7 -2 -658 -3 -1445 l-1 -1433 80 0 c229 -2 408 0 411
3 2 2 4 453 5 1003 1 849 3 993 14 959 8 -22 35 -107 60 -190 26 -82 53 -168
60 -190 8 -22 37 -114 65 -205 28 -91 64 -205 80 -255 16 -49 52 -164 80 -255
29 -91 60 -190 69 -220 10 -30 38 -117 61 -192 l44 -138 241 0 240 0 69 228
c38 125 84 274 102 332 52 165 204 659 224 725 10 33 30 98 45 145 14 47 33
108 41 135 56 193 51 266 52 -858 0 -560 2 -1020 4 -1022 4 -4 179 -6 383 -6
l110 1 -2 1428 c-1 785 -2 1435 -2 1445 -1 16 -25 17 -359 17 l-359 0 -32
-117 c-54 -193 -200 -713 -221 -783 -19 -64 -123 -435 -136 -485 -28 -106
-158 -554 -161 -552 -2 2 -53 179 -113 393 -61 214 -117 412 -125 439 -39 136
-97 342 -100 355 -4 19 -169 603 -194 685 l-18 60 -357 3 c-281 2 -356 0 -357
-10z"/>
<path d="M4120 3103 c-4 -296 -1 -2836 3 -2839 6 -7 1919 -6 1926 1 3 3 6 121
6 261 0 219 -2 254 -15 255 -8 1 -321 2 -695 3 l-680 1 0 320 0 320 586 3 585
2 0 263 0 263 -579 -1 c-374 0 -581 4 -587 10 -4 6 -7 156 -6 335 l1 325 685
1 c377 1 690 2 695 3 8 1 13 439 6 509 -1 9 -201 12 -966 12 l-965 0 0 -47z"/>
</g>
</svg>
