<svg width="60" height="60" version="1.1" viewBox="0 0 60 60" xmlns="http://www.w3.org/2000/svg"><g transform="matrix(2.2487 0 0 2.2487 -37.46 -55.17)" stroke-width=".8"><g transform="translate(10.69 1.1429)"><path d="m24.672 24.377c-0.83864 0-1.5554 0.1618-2.1515 0.48514-0.59617 0.32334-1.0515 0.79374-1.3648 1.4101-0.31323 0.61135-0.46952 1.3513-0.46952 2.2203v3.0241c0 0.86905 0.15628 1.6116 0.46952 2.228 0.31323 0.61132 0.76864 1.0782 1.3648 1.4015 0.59611 0.31829 1.3128 0.47734 2.1515 0.47734 0.69212 0 1.3086-0.14878 1.8491-0.44686 0.54566-0.29809 0.99553-0.73021 1.3492-1.2961 0.35871-0.57091 0.60852-1.2575 0.74999-2.061h-2.1523c-0.07579 0.36881-0.19654 0.68138-0.36327 0.93905-0.16673 0.25768-0.37154 0.455-0.61406 0.5914-0.24251 0.13136-0.5156 0.19687-0.81872 0.19687-0.38903 0-0.71934-0.07775-0.99217-0.23437-0.27284-0.16167-0.48316-0.39448-0.62968-0.69764-0.14146-0.30314-0.21172-0.66896-0.21172-1.0984v-3.0241c0-0.42946 0.07025-0.79605 0.21172-1.0992 0.14653-0.30819 0.35685-0.54024 0.62968-0.69686 0.27281-0.16167 0.60312-0.24297 0.99217-0.24297 0.29809 0 0.56644 0.06828 0.80384 0.20469 0.2425 0.13642 0.44655 0.33372 0.61327 0.5914 0.17178 0.25766 0.29806 0.56825 0.3789 0.932h2.1523c-0.1364-0.80328-0.38346-1.488-0.74217-2.0539-0.35367-0.57092-0.80352-1.005-1.3492-1.303-0.54559-0.29809-1.1648-0.44765-1.857-0.44765z"/><path d="m14.215 24.498-4.2148 11.02h2.2363l0.61914-1.7676h4.0371l0.61914 1.7676h2.2344l-4.2129-11.02zm0.66016 3.4941 1.3164 3.7578h-2.6348z"/></g><g transform="translate(9.0239)"><path d="m11.238 39.212v11.019h1.8874v-7.6772l2.0304 6.4492h1.8343l2.0311-6.5975v7.8256h1.8867v-11.019h-2.7359l-2.0992 7.4264-2.0992-7.4264z"/><path d="m23.333 39.212v11.019h2.0765v-7.99e-4h5.3045v-2.0007h-5.3045v-2.4702h4.4711v-2.0007h-4.4711v-2.5459h5.3045v-2.0007h-5.3045z"/></g></g></svg>
