<svg width="50" height="14.058" version="1.1" viewBox="0 0 50 14.058" xmlns="http://www.w3.org/2000/svg" fill="#fff"><path d="m18.339-6.5081e-5c-1.0483 0-1.9442 0.20225-2.6894 0.60642-0.74521 0.40417-1.3144 0.99217-1.706 1.7626-0.39154 0.76418-0.5869 1.6891-0.5869 2.7753v3.7801c0 1.0863 0.19535 2.0145 0.5869 2.785 0.39154 0.76415 0.9608 1.3477 1.706 1.7519 0.74513 0.39786 1.641 0.59667 2.6894 0.59667 0.86515 0 1.6357-0.18597 2.3114-0.55857 0.68207-0.37261 1.2444-0.91276 1.6865-1.6201 0.44838-0.71363 0.76065-1.5719 0.93748-2.5762h-2.6903c-0.09474 0.46101-0.24567 0.85172-0.45408 1.1738-0.20841 0.3221-0.46442 0.56874-0.76757 0.73924-0.30314 0.1642-0.6445 0.24609-1.0234 0.24609-0.48628 0-0.89917-0.09718-1.2402-0.29296-0.34105-0.20209-0.60395-0.4931-0.78709-0.87205-0.17683-0.37892-0.26465-0.8362-0.26465-1.373v-3.7801c0-0.53682 0.08781-0.99506 0.26465-1.374 0.18316-0.38523 0.44606-0.67529 0.78709-0.87107 0.34101-0.20209 0.7539-0.30371 1.2402-0.30371 0.37261 0 0.70804 0.085347 1.0048 0.25586 0.30312 0.17053 0.55818 0.41715 0.76658 0.73924 0.21472 0.32208 0.37257 0.71031 0.47362 1.165h2.6903c-0.1705-1.0041-0.47932-1.86-0.92771-2.5673-0.44208-0.71365-1.0044-1.2562-1.6865-1.6288-0.68198-0.37261-1.456-0.55956-2.3212-0.55956zm-13.072 0.15136-5.2675 13.774h2.7948l0.77342-2.2078h5.0468l0.77342 2.2078h2.7939l-5.2666-13.774zm20.387 0v13.774h2.3592v-9.5964l2.538 8.0614h2.2929l2.5389-8.2468v9.782h2.3583v-13.774h-3.4198l-2.624 9.2829-2.624-9.2829zm15.119 0v13.774h2.5956v-9.99e-4h6.6306v-2.5009h-6.6306v-3.0877h5.5888v-2.5009h-5.5888v-3.1824h6.6306v-2.5009h-6.6306zm-34.681 4.3671 1.6464 4.698h-3.2928z"/></svg>
